<svg id="visual" viewBox="0 0 900 600" width="900" height="600" xmlns="http://www.w3.org/2000/svg" xmlns:xlink="http://www.w3.org/1999/xlink" version="1.1"><path d="M0 367L6.5 375.5C13 384 26 401 39 406.2C52 411.3 65 404.7 78 399.3C91 394 104 390 117.2 394.8C130.3 399.7 143.7 413.3 156.8 417.8C170 422.3 183 417.7 196 409.7C209 401.7 222 390.3 235 389.7C248 389 261 399 274 403.7C287 408.3 300 407.7 313 410.8C326 414 339 421 352 424C365 427 378 426 391 415C404 404 417 383 430.2 373.8C443.3 364.7 456.7 367.3 469.8 377.2C483 387 496 404 509 412.8C522 421.7 535 422.3 548 423.7C561 425 574 427 587 426.3C600 425.7 613 422.3 626 416.5C639 410.7 652 402.3 665 392.3C678 382.3 691 370.7 704 375.7C717 380.7 730 402.3 743.2 405.7C756.3 409 769.7 394 782.8 387C796 380 809 381 822 384.5C835 388 848 394 861 390.3C874 386.7 887 373.3 893.5 366.7L900 360L900 601L893.5 601C887 601 874 601 861 601C848 601 835 601 822 601C809 601 796 601 782.8 601C769.7 601 756.3 601 743.2 601C730 601 717 601 704 601C691 601 678 601 665 601C652 601 639 601 626 601C613 601 600 601 587 601C574 601 561 601 548 601C535 601 522 601 509 601C496 601 483 601 469.8 601C456.7 601 443.3 601 430.2 601C417 601 404 601 391 601C378 601 365 601 352 601C339 601 326 601 313 601C300 601 287 601 274 601C261 601 248 601 235 601C222 601 209 601 196 601C183 601 170 601 156.8 601C143.7 601 130.3 601 117.2 601C104 601 91 601 78 601C65 601 52 601 39 601C26 601 13 601 6.5 601L0 601Z" fill="#74ec6d"></path><path d="M0 460L6.5 450.3C13 440.7 26 421.3 39 418C52 414.7 65 427.3 78 433.2C91 439 104 438 117.2 436.5C130.3 435 143.7 433 156.8 432.7C170 432.3 183 433.7 196 430C209 426.3 222 417.7 235 416.2C248 414.7 261 420.3 274 426.5C287 432.7 300 439.3 313 439.5C326 439.7 339 433.3 352 433C365 432.7 378 438.3 391 438.5C404 438.7 417 433.3 430.2 432C443.3 430.7 456.7 433.3 469.8 433.5C483 433.7 496 431.3 509 433.5C522 435.7 535 442.3 548 447.5C561 452.7 574 456.3 587 455C600 453.7 613 447.3 626 444.8C639 442.3 652 443.7 665 436.2C678 428.7 691 412.3 704 412.2C717 412 730 428 743.2 437.5C756.3 447 769.7 450 782.8 445C796 440 809 427 822 424C835 421 848 428 861 433.2C874 438.3 887 441.7 893.5 443.3L900 445L900 601L893.5 601C887 601 874 601 861 601C848 601 835 601 822 601C809 601 796 601 782.8 601C769.7 601 756.3 601 743.2 601C730 601 717 601 704 601C691 601 678 601 665 601C652 601 639 601 626 601C613 601 600 601 587 601C574 601 561 601 548 601C535 601 522 601 509 601C496 601 483 601 469.8 601C456.7 601 443.3 601 430.2 601C417 601 404 601 391 601C378 601 365 601 352 601C339 601 326 601 313 601C300 601 287 601 274 601C261 601 248 601 235 601C222 601 209 601 196 601C183 601 170 601 156.8 601C143.7 601 130.3 601 117.2 601C104 601 91 601 78 601C65 601 52 601 39 601C26 601 13 601 6.5 601L0 601Z" fill="#00dfa1"></path><path d="M0 486L6.5 478C13 470 26 454 39 449.7C52 445.3 65 452.7 78 454.8C91 457 104 454 117.2 449.8C130.3 445.7 143.7 440.3 156.8 443C170 445.7 183 456.3 196 456.7C209 457 222 447 235 443.2C248 439.3 261 441.7 274 445.3C287 449 300 454 313 453.5C326 453 339 447 352 442.8C365 438.7 378 436.3 391 440.2C404 444 417 454 430.2 460.5C443.3 467 456.7 470 469.8 471.3C483 472.7 496 472.3 509 466.5C522 460.7 535 449.3 548 450.5C561 451.7 574 465.3 587 467C600 468.7 613 458.3 626 451.3C639 444.3 652 440.7 665 447.2C678 453.7 691 470.3 704 472C717 473.7 730 460.3 743.2 455.3C756.3 450.3 769.7 453.7 782.8 452.2C796 450.7 809 444.3 822 449.3C835 454.3 848 470.7 861 472.2C874 473.7 887 460.3 893.5 453.7L900 447L900 601L893.5 601C887 601 874 601 861 601C848 601 835 601 822 601C809 601 796 601 782.8 601C769.7 601 756.3 601 743.2 601C730 601 717 601 704 601C691 601 678 601 665 601C652 601 639 601 626 601C613 601 600 601 587 601C574 601 561 601 548 601C535 601 522 601 509 601C496 601 483 601 469.8 601C456.7 601 443.3 601 430.2 601C417 601 404 601 391 601C378 601 365 601 352 601C339 601 326 601 313 601C300 601 287 601 274 601C261 601 248 601 235 601C222 601 209 601 196 601C183 601 170 601 156.8 601C143.7 601 130.3 601 117.2 601C104 601 91 601 78 601C65 601 52 601 39 601C26 601 13 601 6.5 601L0 601Z" fill="#00cdc1"></path><path d="M0 467L6.5 471.2C13 475.3 26 483.7 39 486.7C52 489.7 65 487.3 78 485.2C91 483 104 481 117.2 480.3C130.3 479.7 143.7 480.3 156.8 481.8C170 483.3 183 485.7 196 484.5C209 483.3 222 478.7 235 480C248 481.3 261 488.7 274 494.7C287 500.7 300 505.3 313 501.7C326 498 339 486 352 483.8C365 481.7 378 489.3 391 491.5C404 493.7 417 490.3 430.2 488.8C443.3 487.3 456.7 487.7 469.8 486.5C483 485.3 496 482.7 509 481C522 479.3 535 478.7 548 478C561 477.3 574 476.7 587 482.5C600 488.3 613 500.7 626 506.8C639 513 652 513 665 512.8C678 512.7 691 512.3 704 512.3C717 512.3 730 512.7 743.2 508C756.3 503.3 769.7 493.7 782.8 492.7C796 491.7 809 499.3 822 497.3C835 495.3 848 483.7 861 477.2C874 470.7 887 469.3 893.5 468.7L900 468L900 601L893.5 601C887 601 874 601 861 601C848 601 835 601 822 601C809 601 796 601 782.8 601C769.7 601 756.3 601 743.2 601C730 601 717 601 704 601C691 601 678 601 665 601C652 601 639 601 626 601C613 601 600 601 587 601C574 601 561 601 548 601C535 601 522 601 509 601C496 601 483 601 469.8 601C456.7 601 443.3 601 430.2 601C417 601 404 601 391 601C378 601 365 601 352 601C339 601 326 601 313 601C300 601 287 601 274 601C261 601 248 601 235 601C222 601 209 601 196 601C183 601 170 601 156.8 601C143.7 601 130.3 601 117.2 601C104 601 91 601 78 601C65 601 52 601 39 601C26 601 13 601 6.5 601L0 601Z" fill="#00b7ca"></path><path d="M0 540L6.5 536C13 532 26 524 39 520.3C52 516.7 65 517.3 78 517.3C91 517.3 104 516.7 117.2 519.7C130.3 522.7 143.7 529.3 156.8 529.8C170 530.3 183 524.7 196 522.2C209 519.7 222 520.3 235 522.5C248 524.7 261 528.3 274 527.2C287 526 300 520 313 518.3C326 516.7 339 519.3 352 517.8C365 516.3 378 510.7 391 508.8C404 507 417 509 430.2 509.3C443.3 509.7 456.7 508.3 469.8 509.3C483 510.3 496 513.7 509 516.5C522 519.3 535 521.7 548 525.7C561 529.7 574 535.3 587 534.5C600 533.7 613 526.3 626 522C639 517.7 652 516.3 665 516.3C678 516.3 691 517.7 704 519.2C717 520.7 730 522.3 743.2 520.7C756.3 519 769.7 514 782.8 510.5C796 507 809 505 822 509.8C835 514.7 848 526.3 861 529C874 531.7 887 525.3 893.5 522.2L900 519L900 601L893.5 601C887 601 874 601 861 601C848 601 835 601 822 601C809 601 796 601 782.8 601C769.7 601 756.3 601 743.2 601C730 601 717 601 704 601C691 601 678 601 665 601C652 601 639 601 626 601C613 601 600 601 587 601C574 601 561 601 548 601C535 601 522 601 509 601C496 601 483 601 469.8 601C456.7 601 443.3 601 430.2 601C417 601 404 601 391 601C378 601 365 601 352 601C339 601 326 601 313 601C300 601 287 601 274 601C261 601 248 601 235 601C222 601 209 601 196 601C183 601 170 601 156.8 601C143.7 601 130.3 601 117.2 601C104 601 91 601 78 601C65 601 52 601 39 601C26 601 13 601 6.5 601L0 601Z" fill="#00a0ca"></path><path d="M0 554L6.5 553.2C13 552.3 26 550.7 39 551.7C52 552.7 65 556.3 78 558.5C91 560.7 104 561.3 117.2 560.3C130.3 559.3 143.7 556.7 156.8 554.2C170 551.7 183 549.3 196 550C209 550.7 222 554.3 235 555.8C248 557.3 261 556.7 274 558.2C287 559.7 300 563.3 313 566.2C326 569 339 571 352 567.7C365 564.3 378 555.7 391 551.3C404 547 417 547 430.2 548.3C443.3 549.7 456.7 552.3 469.8 555.8C483 559.3 496 563.7 509 562.2C522 560.7 535 553.3 548 552C561 550.7 574 555.3 587 558.8C600 562.3 613 564.7 626 561.5C639 558.3 652 549.7 665 547C678 544.3 691 547.7 704 548.3C717 549 730 547 743.2 545.3C756.3 543.7 769.7 542.3 782.8 544.2C796 546 809 551 822 551.2C835 551.3 848 546.7 861 548.2C874 549.7 887 557.3 893.5 561.2L900 565L900 601L893.5 601C887 601 874 601 861 601C848 601 835 601 822 601C809 601 796 601 782.8 601C769.7 601 756.3 601 743.2 601C730 601 717 601 704 601C691 601 678 601 665 601C652 601 639 601 626 601C613 601 600 601 587 601C574 601 561 601 548 601C535 601 522 601 509 601C496 601 483 601 469.8 601C456.7 601 443.3 601 430.2 601C417 601 404 601 391 601C378 601 365 601 352 601C339 601 326 601 313 601C300 601 287 601 274 601C261 601 248 601 235 601C222 601 209 601 196 601C183 601 170 601 156.8 601C143.7 601 130.3 601 117.2 601C104 601 91 601 78 601C65 601 52 601 39 601C26 601 13 601 6.5 601L0 601Z" fill="#1788c1"></path></svg>