<svg id="visual" viewBox="0 0 900 600" width="900" height="600" xmlns="http://www.w3.org/2000/svg" xmlns:xlink="http://www.w3.org/1999/xlink" version="1.1"><path d="M0 189L21.5 189.3C43 189.7 86 190.3 128.8 195.8C171.7 201.3 214.3 211.7 257.2 213.3C300 215 343 208 385.8 203.2C428.7 198.3 471.3 195.7 514.2 195C557 194.3 600 195.7 642.8 205.3C685.7 215 728.3 233 771.2 236.5C814 240 857 229 878.5 223.5L900 218L900 0L878.5 0C857 0 814 0 771.2 0C728.3 0 685.7 0 642.8 0C600 0 557 0 514.2 0C471.3 0 428.7 0 385.8 0C343 0 300 0 257.2 0C214.3 0 171.7 0 128.8 0C86 0 43 0 21.5 0L0 0Z" fill="#556581"></path><path d="M0 148L21.5 153.2C43 158.3 86 168.7 128.8 172C171.7 175.3 214.3 171.7 257.2 165.2C300 158.7 343 149.3 385.8 145.7C428.7 142 471.3 144 514.2 147.8C557 151.7 600 157.3 642.8 165.5C685.7 173.7 728.3 184.3 771.2 192.2C814 200 857 205 878.5 207.5L900 210L900 0L878.5 0C857 0 814 0 771.2 0C728.3 0 685.7 0 642.8 0C600 0 557 0 514.2 0C471.3 0 428.7 0 385.8 0C343 0 300 0 257.2 0C214.3 0 171.7 0 128.8 0C86 0 43 0 21.5 0L0 0Z" fill="#355a70"></path><path d="M0 148L21.5 143.8C43 139.7 86 131.3 128.8 124C171.7 116.7 214.3 110.3 257.2 107.2C300 104 343 104 385.8 109.7C428.7 115.3 471.3 126.7 514.2 133.2C557 139.7 600 141.3 642.8 142.2C685.7 143 728.3 143 771.2 136.2C814 129.3 857 115.7 878.5 108.8L900 102L900 0L878.5 0C857 0 814 0 771.2 0C728.3 0 685.7 0 642.8 0C600 0 557 0 514.2 0C471.3 0 428.7 0 385.8 0C343 0 300 0 257.2 0C214.3 0 171.7 0 128.8 0C86 0 43 0 21.5 0L0 0Z" fill="#164e5b"></path><path d="M0 84L21.5 84.8C43 85.7 86 87.3 128.8 83.8C171.7 80.3 214.3 71.7 257.2 71.5C300 71.3 343 79.7 385.8 84.3C428.7 89 471.3 90 514.2 86.3C557 82.7 600 74.3 642.8 72.8C685.7 71.3 728.3 76.7 771.2 76.3C814 76 857 70 878.5 67L900 64L900 0L878.5 0C857 0 814 0 771.2 0C728.3 0 685.7 0 642.8 0C600 0 557 0 514.2 0C471.3 0 428.7 0 385.8 0C343 0 300 0 257.2 0C214.3 0 171.7 0 128.8 0C86 0 43 0 21.5 0L0 0Z" fill="#004142"></path><path d="M0 42L21.5 43.8C43 45.7 86 49.3 128.8 46.5C171.7 43.7 214.3 34.3 257.2 37.7C300 41 343 57 385.8 59.3C428.7 61.7 471.3 50.3 514.2 45.8C557 41.3 600 43.7 642.8 48.5C685.7 53.3 728.3 60.7 771.2 62C814 63.3 857 58.7 878.5 56.3L900 54L900 0L878.5 0C857 0 814 0 771.2 0C728.3 0 685.7 0 642.8 0C600 0 557 0 514.2 0C471.3 0 428.7 0 385.8 0C343 0 300 0 257.2 0C214.3 0 171.7 0 128.8 0C86 0 43 0 21.5 0L0 0Z" fill="#003329"></path></svg>