<svg id="visual" viewBox="0 0 900 600" width="900" height="600" xmlns="http://www.w3.org/2000/svg" xmlns:xlink="http://www.w3.org/1999/xlink" version="1.1"><path d="M0 173L21.5 175.3C43 177.7 86 182.3 128.8 182.8C171.7 183.3 214.3 179.7 257.2 184.2C300 188.7 343 201.3 385.8 201C428.7 200.7 471.3 187.3 514.2 183C557 178.7 600 183.3 642.8 194.8C685.7 206.3 728.3 224.7 771.2 221.8C814 219 857 195 878.5 183L900 171L900 0L878.5 0C857 0 814 0 771.2 0C728.3 0 685.7 0 642.8 0C600 0 557 0 514.2 0C471.3 0 428.7 0 385.8 0C343 0 300 0 257.2 0C214.3 0 171.7 0 128.8 0C86 0 43 0 21.5 0L0 0Z" fill="#fef3c7"></path><path d="M0 193L21.5 185.7C43 178.3 86 163.7 128.8 155.7C171.7 147.7 214.3 146.3 257.2 154.7C300 163 343 181 385.8 178.2C428.7 175.3 471.3 151.7 514.2 151.5C557 151.3 600 174.7 642.8 176.5C685.7 178.3 728.3 158.7 771.2 150.7C814 142.7 857 146.3 878.5 148.2L900 150L900 0L878.5 0C857 0 814 0 771.2 0C728.3 0 685.7 0 642.8 0C600 0 557 0 514.2 0C471.3 0 428.7 0 385.8 0C343 0 300 0 257.2 0C214.3 0 171.7 0 128.8 0C86 0 43 0 21.5 0L0 0Z" fill="#b8c098"></path><path d="M0 133L21.5 131.8C43 130.7 86 128.3 128.8 129.8C171.7 131.3 214.3 136.7 257.2 133.2C300 129.7 343 117.3 385.8 113.2C428.7 109 471.3 113 514.2 119.7C557 126.3 600 135.7 642.8 136.2C685.7 136.7 728.3 128.3 771.2 118.8C814 109.3 857 98.7 878.5 93.3L900 88L900 0L878.5 0C857 0 814 0 771.2 0C728.3 0 685.7 0 642.8 0C600 0 557 0 514.2 0C471.3 0 428.7 0 385.8 0C343 0 300 0 257.2 0C214.3 0 171.7 0 128.8 0C86 0 43 0 21.5 0L0 0Z" fill="#778f6f"></path><path d="M0 102L21.5 96.8C43 91.7 86 81.3 128.8 79.3C171.7 77.3 214.3 83.7 257.2 86C300 88.3 343 86.7 385.8 85.8C428.7 85 471.3 85 514.2 89.2C557 93.3 600 101.7 642.8 99.8C685.7 98 728.3 86 771.2 79.8C814 73.7 857 73.3 878.5 73.2L900 73L900 0L878.5 0C857 0 814 0 771.2 0C728.3 0 685.7 0 642.8 0C600 0 557 0 514.2 0C471.3 0 428.7 0 385.8 0C343 0 300 0 257.2 0C214.3 0 171.7 0 128.8 0C86 0 43 0 21.5 0L0 0Z" fill="#3c604a"></path><path d="M0 25L21.5 24.8C43 24.7 86 24.3 128.8 30.8C171.7 37.3 214.3 50.7 257.2 52C300 53.3 343 42.7 385.8 41C428.7 39.3 471.3 46.7 514.2 53C557 59.3 600 64.7 642.8 60.3C685.7 56 728.3 42 771.2 42.7C814 43.3 857 58.7 878.5 66.3L900 74L900 0L878.5 0C857 0 814 0 771.2 0C728.3 0 685.7 0 642.8 0C600 0 557 0 514.2 0C471.3 0 428.7 0 385.8 0C343 0 300 0 257.2 0C214.3 0 171.7 0 128.8 0C86 0 43 0 21.5 0L0 0Z" fill="#003329"></path></svg>